<?xml version="1.0"?>
<svg xmlns="http://www.w3.org/2000/svg" xmlns:xlink="http://www.w3.org/1999/xlink" viewBox="0 0 280 510" width="280" height="510" preserveAspectRatio="xMidYMid meet" style="width: 100%; height: 100%; transform: translate3d(0px, 0px, 0px); content-visibility: visible;">
  <defs>
    <clipPath id="__lottie_element_110">
      <rect width="280" height="510" x="0" y="0"/>
    </clipPath>
    <clipPath id="__lottie_element_112">
      <path d="M0,0 L242,0 L242,400 L0,400z"/>
    </clipPath>
  </defs>
  <g clip-path="url(#__lottie_element_110)">
    <g id="73" clip-path="url(#__lottie_element_112)" transform="matrix(1,0,0,1,19,-49.07200622558594)" opacity="1" style="display: block;">
      <g id="74" transform="matrix(1,0,0,1,0,62.5)" opacity="1" style="display: block;">
        <g opacity="1" transform="matrix(1,0,0,1,70.19499969482422,16.534000396728516)">
          <path fill="rgb(125,64,255)" fill-opacity="1" d=" M12.10099983215332,14.604000091552734 C13.246999740600586,0.9649999737739563 10.572999954223633,-16.69099998474121 -1.3370000123977661,-15.362000465393066 C-13.246999740600586,-14.032999992370605 -12.616000175476074,-0.14499999582767487 2.740000009536743,16.534000396728516 C2.740000009536743,16.534000396728516 12.10099983215332,14.604000091552734 12.10099983215332,14.604000091552734z"/>
        </g>
      </g>
      <g id="75" transform="matrix(1,0,0,1,0,62.5)" opacity="1" style="display: block;">
        <g opacity="1" transform="matrix(1,0,0,1,173.12600708007812,15.947999954223633)">
          <path fill="rgb(125,64,255)" fill-opacity="1" d=" M-12.611000061035156,13.782999992370605 C-13.42300033569336,0.12099999934434891 -10.319000244140625,-17.46500015258789 1.5509999990463257,-15.83899974822998 C13.42300033569336,-14.213000297546387 12.456000328063965,-0.3479999899864197 -3.303999900817871,15.947999954223633 C-3.303999900817871,15.947999954223633 -12.611000061035156,13.782999992370605 -12.611000061035156,13.782999992370605z"/>
        </g>
      </g>
      <g id="76" transform="matrix(1,0,0,1,0,62.5)" opacity="1" style="display: block;">
        <g opacity="1" transform="matrix(1,0,0,1,14.590999603271484,157.81399536132812)">
          <path fill="rgb(125,64,255)" fill-opacity="1" d=" M13.164999961853027,-8.015999794006348 C4.622000217437744,-11.883000373840332 3.506999969482422,-11.930000305175781 -4.677000045776367,-15.729999542236328 C-15.083000183105469,-20.551000595092773 -18.1299991607666,-12.767999649047852 -9.767000198364258,-0.6520000100135803 C-4.965000152587891,6.310999870300293 0.7400000095367432,12.994000434875488 14.590999603271484,20.551000595092773 C14.590999603271484,20.551000595092773 13.164999961853027,-8.015999794006348 13.164999961853027,-8.015999794006348z"/>
        </g>
      </g>
      <g id="77" transform="matrix(1,0,0,1,0,62.5)" opacity="1" style="display: block;">
        <g opacity="1" transform="matrix(1,0,0,1,210.14700317382812,150.1699981689453)">
          <path fill="rgb(125,64,255)" fill-opacity="1" d=" M-31.85300064086914,3.066999912261963 C-31.85300064086914,3.066999912261963 -4.431000232696533,-4.28000020980835 20.059999465942383,-19.770999908447266 C29.334999084472656,-25.639999389648438 36.02299880981445,-19.160999298095703 28.790000915527344,-7.070000171661377 C20.53499984741211,6.7170000076293945 6.192999839782715,20.871999740600586 -7.105000019073486,25.639999389648438 C-7.105000019073486,25.639999389648438 -31.85300064086914,3.066999912261963 -31.85300064086914,3.066999912261963z"/>
        </g>
      </g>
      <g id="78" transform="matrix(1,0,0,1,0,62.5)" opacity="1" style="display: block;">
        <g opacity="1" transform="matrix(1,0,0,1,118.66500091552734,154.50399780273438)">
          <path fill="rgb(143,112,255)" fill-opacity="1" d=" M-93.9489974975586,-11.043999671936035 C-96.52100372314453,-48.90399932861328 -98.35199737548828,-75.41500091552734 -81.4530029296875,-100.24600219726562 C-58.178001403808594,-134.44900512695312 -17.864999771118164,-138.37899780273438 -9.331000328063965,-139.20700073242188 C0.328000009059906,-140.14599609375 37.35200119018555,-143.7570037841797 65.06999969482422,-117.81600189208984 C86.75499725341797,-97.51799774169922 89.70899963378906,-65.08999633789062 86.3030014038086,-22.96299934387207 C81.69499969482422,34.077999114990234 98.35199737548828,55.21900177001953 88.0479965209961,93.16400146484375 C79.37200164794922,125.13099670410156 41.928001403808594,138.92599487304688 17.32699966430664,140.8719940185547 C-19.089000701904297,143.7570037841797 -41.70100021362305,137.47300720214844 -61.94300079345703,115.34600067138672 C-86.02100372314453,89.02200317382812 -91.14299774169922,30.43400001525879 -93.95600128173828,-11.03600025177002 C-93.95600128173828,-11.03600025177002 -93.9489974975586,-11.043999671936035 -93.9489974975586,-11.043999671936035z"/>
        </g>
      </g>
      <g id="80" transform="matrix(1,0,0,1,0,62.5)" opacity="1" style="display: block;">
        <g opacity="1" transform="matrix(1,0,0,1,155.89700317382812,88.697998046875)">
          <path fill="rgb(255,255,255)" fill-opacity="1" d=" M4.929999828338623,-38.41899871826172 C25.687000274658203,-36.012001037597656 41.14400100708008,-17.15999984741211 39.52199935913086,3.818000078201294 C37.893001556396484,24.929000854492188 19.53700065612793,40.91999816894531 -0.8930000066757202,40.215999603271484 C-23.326000213623047,39.45100021362305 -41.14400100708008,18.801000595092773 -38.56399917602539,-3.740000009536743 C-36.14799880981445,-24.865999221801758 -16.58300018310547,-40.91999816894531 4.929999828338623,-38.426998138427734 C4.929999828338623,-38.426998138427734 4.929999828338623,-38.41899871826172 4.929999828338623,-38.41899871826172z"/>
        </g>
        <g opacity="1" transform="matrix(1,0,0,1,52.03300094604492,90.18299865722656)">
          <path fill="rgb(255,255,255)" fill-opacity="1" d=" M4.929999828338623,-38.41899871826172 C25.687000274658203,-36.012001037597656 41.14400100708008,-17.15999984741211 39.52299880981445,3.818000078201294 C37.89400100708008,24.929000854492188 19.53700065612793,40.91999816894531 -0.8920000195503235,40.215999603271484 C-23.325000762939453,39.45100021362305 -41.14400100708008,18.801000595092773 -38.56399917602539,-3.740000009536743 C-36.14799880981445,-24.865999221801758 -16.58300018310547,-40.91999816894531 4.929999828338623,-38.426998138427734 C4.929999828338623,-38.426998138427734 4.929999828338623,-38.41899871826172 4.929999828338623,-38.41899871826172z"/>
        </g>
      </g>
      <g id="81" transform="matrix(1,0,0,1,-1.3030014038085938,67.69700622558594)" opacity="1" style="display: block;">
        <g opacity="1" transform="matrix(1,0,0,1,139.9600067138672,76.11100006103516)">
          <path fill="rgb(18,21,23)" fill-opacity="1" d=" M1.1770000457763672,-9.184000015258789 C1.1770000457763672,-9.184000015258789 1.184999942779541,-9.184000015258789 1.184999942779541,-9.184000015258789 C-3.9590001106262207,-9.777999877929688 -8.63599967956543,-5.940000057220459 -9.213000297546387,-0.890999972820282 C-9.829000473022461,4.49399995803833 -5.572999954223633,9.434000015258789 -0.20999999344348907,9.61299991607666 C4.669000148773193,9.777999877929688 9.057999610900879,5.955999851226807 9.446999549865723,0.9139999747276306 C9.829000473022461,-4.103000164031982 6.135000228881836,-8.604999542236328 1.1770000457763672,-9.184000015258789z M0,3.180999994277954 C-1.7070000171661377,3.125999927520752 -3.062999963760376,1.5549999475479126 -2.868000030517578,-0.164000004529953 C-2.680999994277954,-1.7740000486373901 -1.1920000314712524,-2.993000030517578 0.4449999928474426,-2.805999994277954 C0.4449999928474426,-2.805999994277954 0.4449999928474426,-2.7980000972747803 0.4449999928474426,-2.7980000972747803 C2.0269999504089355,-2.618000030517578 3.2039999961853027,-1.1799999475479126 3.0789999961853027,0.414000004529953 C2.9549999237060547,2.0239999294281006 1.559000015258789,3.2360000610351562 0,3.180999994277954z"/>
        </g>
        <g opacity="1" transform="matrix(1,0,0,1,37.141998291015625,77.26699829101562)">
          <path fill="rgb(18,21,23)" fill-opacity="1" d=" M1.1770000457763672,-9.184000015258789 C1.1770000457763672,-9.184000015258789 1.184999942779541,-9.184000015258789 1.184999942779541,-9.184000015258789 C-3.9600000381469727,-9.777000427246094 -8.63700008392334,-5.939000129699707 -9.21399974822998,-0.890999972820282 C-9.829000473022461,4.494999885559082 -5.572999954223633,9.4350004196167 -0.210999995470047,9.61400032043457 C4.669000148773193,9.777000427246094 9.057000160217285,5.955999851226807 9.446999549865723,0.9150000214576721 C9.829000473022461,-4.1020002365112305 6.133999824523926,-8.604000091552734 1.1770000457763672,-9.184000015258789z M-0.00800000037997961,3.181999921798706 C-1.715000033378601,3.127000093460083 -3.071000099182129,1.5549999475479126 -2.875999927520752,-0.16300000250339508 C-2.688999891281128,-1.7730000019073486 -1.2009999752044678,-2.993000030517578 0.4359999895095825,-2.805000066757202 C0.4359999895095825,-2.805000066757202 0.4359999895095825,-2.7980000972747803 0.4359999895095825,-2.7980000972747803 C2.0179998874664307,-2.617000102996826 3.194999933242798,-1.1799999475479126 3.071000099182129,0.41499999165534973 C2.946000099182129,2.0250000953674316 1.5509999990463257,3.2360000610351562 -0.00800000037997961,3.181999921798706z"/>
        </g>
      </g>
      <g id="88" style="display: none;" transform="matrix(1,0,0,0.8301947712898254,-18.336997985839844,86.95498657226562)" opacity="0.057484999999971365">
        <g opacity="1" transform="matrix(0.9986295104026794,-0.0523359552025795,0.0523359552025795,0.9986295104026794,175.74000549316406,110.11499786376953)">
          <path fill="rgb(126,79,255)" fill-opacity="1" d=" M-39.18899917602539,-18.496999740600586 C-37.32099914550781,1.409999966621399 -20.625,17.128000259399414 -0.9860000014305115,17.825000762939453 C18.05500030517578,18.496999740600586 34.79100036621094,4.894000053405762 39.18899917602539,-13.029000282287598 C39.18899917602539,-13.029000282287598 -39.18899917602539,-18.496999740600586 -39.18899917602539,-18.496999740600586z"/>
        </g>
        <g opacity="1" transform="matrix(0.9986295104026794,-0.0523359552025795,0.0523359552025795,0.9986295104026794,71.36599731445312,110.7770004272461)">
          <path fill="rgb(126,79,255)" fill-opacity="1" d=" M-39.18899917602539,-18.496999740600586 C-37.32099914550781,1.409999966621399 -20.625,17.128000259399414 -0.9860000014305115,17.823999404907227 C18.054000854492188,18.496999740600586 34.79100036621094,4.894000053405762 39.18899917602539,-13.029000282287598 C39.18899917602539,-13.029000282287598 -39.18899917602539,-18.496999740600586 -39.18899917602539,-18.496999740600586z"/>
        </g>
      </g>
      <g id="89" style="display: none;" transform="matrix(1,0,0,0.34121978282928467,-17.838912963867188,96.55374908447266)" opacity="0.057484999999971365">
        <g opacity="1" transform="matrix(0.9986295104026794,-0.0523359552025795,0.0523359552025795,0.9986295104026794,174.86000061035156,56.95000076293945)">
          <path fill="rgb(126,79,255)" fill-opacity="1" d=" M33.198001861572266,10.62600040435791 C26.034000396728516,-2.053999900817871 12.175999641418457,-10.62600040435791 -3.322999954223633,-9.913000106811523 C-15.491000175476074,-9.354000091552734 -26.253000259399414,-3.187999963760376 -33.198001861572266,5.991000175476074 C-33.198001861572266,5.991000175476074 33.198001861572266,10.62600040435791 33.198001861572266,10.62600040435791z"/>
        </g>
        <g opacity="1" transform="matrix(0.9986295104026794,-0.0523359552025795,0.0523359552025795,0.9986295104026794,70.62100219726562,58.56800079345703)">
          <path fill="rgb(126,79,255)" fill-opacity="1" d=" M33.198001861572266,10.62600040435791 C26.03499984741211,-2.053999900817871 12.177000045776367,-10.62600040435791 -3.322999954223633,-9.913000106811523 C-15.491000175476074,-9.354000091552734 -26.253000259399414,-3.187999963760376 -33.198001861572266,5.992000102996826 C-33.198001861572266,5.992000102996826 33.198001861572266,10.62600040435791 33.198001861572266,10.62600040435791z"/>
        </g>
      </g>
      <g id="79" transform="matrix(1,0,0,1,-1,62.5)" opacity="1" style="display: block;">
        <g opacity="1" transform="matrix(1,0,0,1,105.24099731445312,123.82599639892578)">
          <path fill="rgb(255,255,255)" fill-opacity="1" d=" M-2.825000047683716,-6.39900016784668 C-2.825000047683716,-6.39900016784668 2.309000015258789,-6.604000091552734 2.309000015258789,-6.604000091552734 C4.4710001945495605,-6.690000057220459 6.296000003814697,-5.001999855041504 6.381999969482422,-2.8320000171661377 C6.381999969482422,-2.8320000171661377 6.586999893188477,2.315000057220459 6.586999893188477,2.315000057220459 C6.672999858856201,4.484000205993652 4.988999843597412,6.313000202178955 2.825000047683716,6.39900016784668 C2.825000047683716,6.39900016784668 -2.309000015258789,6.604000091552734 -2.309000015258789,6.604000091552734 C-4.4720001220703125,6.690000057220459 -6.296000003814697,5.001999855041504 -6.381999969482422,2.8320000171661377 C-6.381999969482422,2.8320000171661377 -6.585999965667725,-2.313999891281128 -6.585999965667725,-2.313999891281128 C-6.672999858856201,-4.484000205993652 -4.988999843597412,-6.313000202178955 -2.825000047683716,-6.39900016784668z"/>
        </g>
        <g opacity="1" transform="matrix(1,0,0,1,105.29399871826172,117.3270034790039)">
          <path fill="rgb(126,79,255)" fill-opacity="1" d=" M-10.581000328063965,8.765999794006348 C-10.581000328063965,8.765999794006348 -6.348999977111816,8.015999794006348 -6.348999977111816,8.015999794006348 C-2.1089999675750732,7.257999897003174 2.2330000400543213,7.2170000076293945 6.488999843597412,7.882999897003174 C6.488999843597412,7.882999897003174 10.737000465393066,8.54699993133545 10.737000465393066,8.54699993133545 C14.555999755859375,9.14799976348877 17.993999481201172,6.163000106811523 17.954999923706055,2.2860000133514404 C17.884000778198242,-4.216000080108643 12.576000213623047,-9.437000274658203 6.091000080108643,-9.366999626159668 C6.091000080108643,-9.366999626159668 -6.302000045776367,-9.241999626159668 -6.302000045776367,-9.241999626159668 C-12.786999702453613,-9.170999526977539 -17.993999481201172,-3.8499999046325684 -17.923999786376953,2.6540000438690186 C-17.885000228881836,6.531000137329102 -14.385000228881836,9.437999725341797 -10.581000328063965,8.758000373840332 C-10.581000328063965,8.758000373840332 -10.581000328063965,8.765999794006348 -10.581000328063965,8.765999794006348z"/>
        </g>
        <g opacity="1" transform="matrix(1,0,0,1,104.6240005493164,108.01100158691406)">
          <path fill="rgb(97,38,255)" fill-opacity="1" d=" M-7.322999954223633,0.8399999737739563 C-7.261000156402588,2.3410000801086426 -2.7009999752044678,2.9739999771118164 0.10499999672174454,2.927000045776367 C2.9040000438690186,2.755000114440918 7.4019999504089355,1.7549999952316284 7.3379998207092285,0.2619999945163727 C7.197999954223633,-2.4660000801086426 3.3480000495910645,-2.9739999771118164 -0.12800000607967377,-2.880000114440918 C-3.5980000495910645,-2.700000047683716 -7.401000022888184,-1.8869999647140503 -7.322999954223633,0.8320000171661377 C-7.322999954223633,0.8320000171661377 -7.322999954223633,0.8399999737739563 -7.322999954223633,0.8399999737739563z"/>
        </g>
      </g>
    </g>
  </g>
</svg>
